<?xml version="1.0" standalone="no"?>
<!DOCTYPE svg PUBLIC "-//W3C//DTD SVG 20010904//EN"
 "http://www.w3.org/TR/2001/REC-SVG-20010904/DTD/svg10.dtd">
<svg version="1.0" xmlns="http://www.w3.org/2000/svg"
 width="512.000000pt" height="512.000000pt" viewBox="0 0 512.000000 512.000000"
 preserveAspectRatio="xMidYMid meet">
<metadata>
Created by potrace 1.14, written by Peter Selinger 2001-2017
</metadata>
<g transform="translate(0.000000,512.000000) scale(0.100000,-0.100000)"
fill="#000000" stroke="none">
<path d="M2447 4984 c-4 -4 -40 -8 -81 -9 -43 0 -81 -6 -89 -14 -11 -8 -17 -9
-22 -1 -3 6 -12 7 -18 3 -7 -4 -29 -8 -49 -9 -20 0 -43 -5 -50 -11 -7 -5 -25
-8 -40 -7 -16 2 -28 -2 -28 -7 0 -6 -5 -7 -10 -4 -6 4 -17 1 -25 -5 -11 -9
-15 -9 -15 -1 0 8 -5 9 -19 2 -10 -6 -21 -7 -25 -4 -3 3 -6 1 -6 -5 0 -7 -3
-11 -7 -10 -16 4 -83 -13 -83 -22 0 -4 -9 -6 -20 -3 -11 3 -20 1 -20 -4 0 -5
-12 -10 -27 -11 -15 -1 -29 -6 -32 -11 -3 -4 -18 -7 -33 -7 -14 1 -26 -1 -25
-4 1 -3 -1 -6 -6 -7 -4 -2 -21 -10 -37 -18 -17 -9 -30 -12 -30 -8 0 5 -4 2 -9
-5 -4 -7 -14 -14 -22 -15 -21 -4 -113 -49 -120 -60 -3 -5 -8 -8 -10 -6 -11 6
-48 -14 -43 -23 5 -7 -2 -9 -19 -6 -15 3 -24 1 -21 -3 3 -5 -2 -9 -11 -9 -10
0 -13 -5 -9 -12 5 -8 2 -9 -9 -5 -11 4 -17 1 -17 -8 0 -8 -6 -12 -14 -9 -8 3
-17 0 -21 -5 -3 -6 -12 -8 -18 -5 -7 4 -9 4 -5 -1 10 -10 -18 -36 -41 -38 -11
0 -17 -5 -15 -9 3 -4 0 -8 -6 -8 -6 0 -8 -4 -5 -10 3 -5 0 -7 -8 -4 -8 3 -17
-2 -21 -11 -3 -9 -10 -13 -16 -10 -6 3 -13 -1 -16 -9 -3 -9 -12 -16 -20 -16
-8 0 -14 -8 -14 -17 0 -14 -2 -15 -9 -4 -7 11 -10 9 -16 -8 -4 -14 -12 -20
-21 -17 -8 3 -14 -1 -14 -9 0 -8 -4 -15 -9 -15 -5 0 -23 -14 -40 -31 -17 -17
-31 -27 -31 -22 -1 4 -7 -3 -15 -17 -8 -14 -14 -21 -15 -16 0 5 -12 -4 -27
-20 -15 -16 -31 -28 -36 -26 -5 1 -6 -2 -3 -6 7 -12 -28 -44 -37 -35 -4 3 -8
1 -8 -5 -1 -7 -2 -18 -3 -24 -1 -7 -9 -12 -19 -12 -9 1 -14 -2 -12 -7 3 -4 -4
-13 -16 -19 -11 -7 -18 -14 -16 -17 3 -2 -12 -23 -34 -45 -21 -22 -36 -44 -33
-49 3 -5 -2 -9 -10 -9 -8 0 -18 -9 -21 -20 -3 -11 -9 -20 -13 -20 -4 0 -18
-18 -32 -40 -14 -22 -28 -40 -32 -40 -5 0 -8 -5 -8 -10 0 -6 -5 -16 -10 -23
-27 -31 -79 -121 -74 -129 3 -5 0 -7 -8 -6 -8 2 -12 -4 -10 -16 2 -11 -1 -15
-7 -11 -6 3 -11 0 -11 -9 0 -18 -32 -76 -43 -76 -5 0 -5 -4 -2 -10 3 -5 1 -10
-5 -10 -6 0 -9 -4 -5 -9 3 -5 1 -12 -5 -16 -6 -4 -8 -11 -5 -16 4 -5 1 -9 -6
-9 -7 0 -9 -3 -6 -7 4 -3 0 -14 -8 -23 -9 -10 -18 -28 -20 -41 -3 -13 -9 -25
-14 -27 -6 -2 -8 -9 -5 -16 3 -8 -1 -20 -8 -27 -7 -8 -13 -24 -12 -36 1 -12
-3 -20 -7 -17 -5 3 -10 -2 -10 -10 -1 -16 -4 -28 -9 -43 -1 -5 -2 -11 -1 -15
0 -5 -3 -8 -8 -8 -6 0 -8 -9 -6 -20 2 -11 0 -20 -6 -20 -5 0 -9 -11 -9 -25 0
-14 -6 -25 -12 -25 -9 0 -8 -4 2 -10 10 -6 11 -10 3 -10 -8 0 -13 -13 -13 -31
0 -16 -4 -28 -9 -25 -5 3 -9 -7 -10 -22 -1 -46 -4 -62 -11 -62 -4 0 -6 -12 -5
-27 1 -16 -3 -44 -7 -63 -5 -19 -12 -53 -14 -75 -3 -22 -9 -42 -12 -45 -12 -9
-7 -53 5 -57 9 -3 6 -11 -7 -25 -16 -17 -17 -24 -7 -36 9 -12 9 -16 -1 -20
-10 -3 -10 -7 -1 -18 9 -11 8 -14 -2 -14 -11 0 -11 -2 1 -10 12 -8 12 -10 1
-10 -11 0 -11 -3 -1 -15 7 -9 8 -15 2 -15 -6 0 -7 -12 -2 -33 4 -18 3 -43 -1
-55 -5 -13 -5 -21 -1 -18 5 3 8 -24 6 -59 -1 -36 2 -67 7 -70 4 -3 4 -16 -1
-29 -6 -16 -5 -27 3 -35 9 -9 8 -14 -3 -21 -12 -8 -12 -10 -1 -10 7 0 11 -6 8
-14 -3 -7 0 -19 6 -26 9 -10 9 -11 -3 -5 -12 7 -13 6 -3 -6 10 -12 10 -18 1
-27 -9 -9 -9 -12 1 -12 7 0 11 -6 8 -15 -4 -8 -2 -17 3 -20 5 -3 10 -16 10
-28 0 -12 1 -32 1 -44 0 -13 5 -23 11 -23 6 0 5 -7 -3 -17 -8 -9 -9 -14 -3
-10 7 4 11 -5 12 -24 0 -17 6 -37 13 -45 9 -11 8 -14 -2 -14 -12 0 -12 -2 0
-9 7 -5 11 -13 7 -19 -3 -6 -2 -13 3 -17 6 -3 7 -13 4 -22 -5 -12 -3 -14 7 -8
10 6 12 4 7 -8 -3 -10 -2 -17 2 -17 5 0 7 -9 4 -20 -3 -12 0 -20 6 -20 7 0 10
-4 7 -9 -8 -12 4 -42 13 -36 4 2 8 -2 8 -10 0 -8 -4 -12 -9 -9 -11 7 13 -38
26 -47 4 -4 3 -10 -3 -13 -14 -9 9 -36 24 -28 6 2 5 -1 -2 -8 -10 -11 -9 -16
5 -27 10 -9 11 -12 2 -7 -13 7 -13 5 -2 -9 8 -9 11 -21 7 -27 -3 -5 1 -10 9
-10 9 0 16 -5 16 -11 0 -5 -6 -7 -12 -3 -7 4 -5 -2 4 -13 10 -11 18 -25 18
-32 0 -7 5 -9 13 -5 9 5 9 4 0 -6 -9 -10 -7 -17 10 -31 14 -12 17 -18 8 -19
-8 0 -4 -8 10 -20 17 -13 19 -19 9 -20 -10 0 -7 -5 8 -16 23 -16 54 -63 33
-50 -6 4 -11 3 -11 -3 0 -5 10 -13 21 -16 15 -5 18 -10 9 -15 -8 -5 -7 -9 5
-14 9 -3 13 -10 10 -16 -3 -5 -1 -10 4 -10 6 0 10 -4 8 -9 -1 -5 7 -17 18 -26
11 -9 14 -14 8 -10 -9 4 -11 1 -7 -9 3 -9 11 -13 17 -9 6 4 8 -2 5 -15 -4 -15
-2 -19 8 -15 8 3 14 -1 14 -11 0 -9 5 -16 10 -16 6 0 10 -7 10 -15 0 -8 5 -15
10 -15 6 0 10 -7 10 -16 0 -9 5 -12 12 -8 8 5 9 2 5 -10 -6 -14 -3 -17 8 -12
9 3 14 2 10 -3 -7 -12 5 -42 15 -36 4 3 14 -3 21 -12 10 -12 10 -14 2 -9 -8 4
-13 2 -13 -7 0 -7 -11 -23 -25 -35 -14 -13 -23 -27 -20 -33 4 -5 3 -9 -2 -8
-23 4 -29 -4 -29 -38 0 -23 7 -44 18 -54 10 -9 15 -19 11 -23 -3 -3 -1 -6 6
-6 14 0 71 -57 71 -71 0 -5 6 -9 13 -9 7 0 21 -14 30 -30 10 -17 25 -30 33
-30 8 0 14 -10 14 -22 0 -19 2 -20 10 -8 8 12 10 12 10 1 0 -17 40 -52 51 -45
5 3 9 1 9 -4 0 -5 13 -9 29 -8 16 0 28 2 26 4 -1 2 14 21 35 42 38 39 77 56
73 33 -2 -7 0 -12 5 -12 25 4 34 -2 23 -15 -10 -12 -8 -13 8 -9 13 3 21 1 21
-7 0 -7 7 -10 15 -7 8 4 17 1 21 -5 5 -7 2 -8 -7 -3 -8 5 -1 -4 15 -19 16 -16
35 -25 44 -21 11 4 12 2 4 -7 -11 -14 2 -30 28 -36 8 -2 20 -8 25 -14 7 -8 6
-8 -4 -3 -9 5 -12 4 -7 -3 4 -7 16 -12 27 -12 10 0 19 -5 19 -11 0 -8 5 -7 15
1 13 11 14 10 9 -6 -4 -10 -4 -16 1 -12 4 4 14 0 22 -10 8 -9 11 -11 7 -3 -5
9 2 8 19 -5 15 -10 27 -23 27 -29 0 -5 5 -3 10 5 8 13 10 13 10 -2 0 -12 6
-15 23 -11 13 3 17 1 10 -4 -8 -6 -4 -12 13 -20 18 -8 23 -8 18 0 -3 7 4 1 16
-13 12 -14 19 -20 16 -13 -6 12 7 11 36 -2 10 -4 15 -11 12 -16 -5 -9 19 -13
61 -11 11 0 15 -2 8 -4 -7 -3 -9 -12 -6 -20 5 -13 7 -13 14 -2 7 10 9 11 9 0
0 -7 4 -11 9 -8 11 7 42 -4 37 -13 -2 -3 6 -7 17 -7 36 -3 51 -8 65 -24 12
-13 13 -13 6 0 -5 10 1 8 16 -5 14 -12 20 -14 15 -5 -7 12 -3 11 18 -3 18 -12
27 -13 27 -5 0 6 7 3 16 -8 8 -10 13 -14 10 -7 -4 7 1 9 14 6 11 -3 20 -9 20
-13 0 -5 8 -7 18 -6 9 2 20 -2 24 -8 5 -7 8 -7 8 3 0 11 3 11 14 1 8 -6 23
-11 33 -10 30 4 44 0 39 -8 -3 -5 1 -9 9 -9 8 0 11 5 8 11 -4 6 4 2 17 -9 13
-11 20 -14 15 -6 -6 11 -4 13 9 8 10 -4 27 -7 37 -7 11 0 17 -4 14 -10 -4 -6
1 -7 11 -3 11 4 15 3 11 -4 -8 -13 19 -11 30 2 4 4 2 5 -6 0 -10 -6 -12 -4 -7
4 6 9 13 8 29 -6 11 -10 17 -12 13 -5 -5 8 -1 11 16 8 13 -2 22 -9 21 -15 -2
-7 5 -7 22 -1 16 6 25 6 25 -1 0 -6 7 -6 19 1 14 7 22 7 27 -1 4 -8 9 -7 15 2
6 9 9 10 9 2 0 -14 40 -13 40 2 0 5 7 1 15 -9 15 -20 15 -20 15 0 0 15 2 16 9
5 5 -7 14 -10 20 -7 6 4 11 1 11 -6 0 -9 3 -9 8 -2 4 6 22 10 40 8 20 -1 30 1
26 8 -4 6 -1 8 7 6 8 -3 13 -11 11 -18 -3 -11 0 -11 12 0 9 7 16 9 16 4 0 -5
5 -2 10 6 6 9 10 10 10 3 0 -14 40 -13 40 2 0 6 3 7 8 0 10 -13 32 -17 32 -6
0 5 11 8 25 5 14 -2 25 -1 25 4 0 4 9 8 20 9 13 1 18 -2 13 -10 -4 -8 -1 -8 9
1 10 8 18 9 22 3 7 -11 32 -5 54 12 8 6 32 11 54 11 24 1 43 6 46 14 3 10 7
10 18 1 10 -8 14 -8 14 -1 0 6 7 9 15 6 8 -4 23 0 32 7 14 12 16 12 9 -1 -7
-13 -6 -13 6 0 7 8 23 14 36 12 13 -2 22 2 22 10 0 10 3 9 10 -2 6 -10 10 -11
10 -2 0 6 12 12 26 12 14 0 23 4 19 10 -3 6 3 10 15 10 14 0 19 -4 15 -12 -4
-7 2 -3 12 10 15 18 21 20 32 10 11 -11 12 -10 6 1 -6 11 -4 13 8 8 9 -3 18 0
21 9 3 8 18 14 35 14 16 0 33 5 36 10 4 6 11 8 16 4 5 -3 9 -2 8 3 -4 20 2 24
18 12 9 -8 14 -9 11 -4 -4 6 -3 17 3 25 5 8 9 10 9 5 0 -6 9 -11 19 -11 11 0
18 3 15 7 -6 10 26 20 38 12 7 -3 8 -1 4 5 -6 11 6 16 27 13 4 0 7 6 7 15 0
14 2 15 17 3 9 -8 14 -9 10 -2 -4 7 1 14 13 18 12 4 17 11 13 18 -4 7 1 6 11
-2 15 -13 18 -12 23 7 3 12 10 22 15 22 5 0 6 -5 2 -12 -4 -7 -3 -8 4 -4 7 4
12 15 12 24 0 15 2 15 10 2 5 -8 10 -10 10 -4 0 7 9 14 21 17 13 4 18 10 13
18 -4 8 -3 10 4 5 7 -4 12 -2 12 3 0 6 5 11 11 11 5 0 7 -6 4 -12 -4 -7 3 -2
15 12 12 14 18 18 14 10 -5 -9 1 -7 15 5 13 11 25 18 26 15 2 -3 7 -1 12 4 5
5 3 6 -4 2 -7 -4 -13 -2 -13 3 0 10 21 16 43 12 4 0 7 5 7 13 0 8 7 16 15 20
8 3 15 13 15 21 0 9 5 13 10 10 6 -4 8 -11 4 -16 -3 -6 3 -5 15 3 12 7 22 16
22 20 1 5 3 13 4 18 1 6 3 13 4 16 0 4 8 1 16 -6 13 -11 14 -10 9 3 -5 13 22
37 46 41 3 1 4 4 3 9 -2 4 2 7 8 7 16 0 39 26 31 35 -4 5 1 5 11 2 13 -5 17
-1 17 14 0 14 5 19 14 16 8 -3 19 0 24 6 10 12 12 18 12 37 0 5 6 9 13 7 6 -1
11 3 10 10 -2 6 6 15 17 18 11 4 20 11 20 16 0 17 38 51 49 45 7 -4 9 -1 5 8
-3 9 3 19 16 26 11 6 18 15 15 21 -4 5 -1 9 4 9 6 0 11 5 11 11 0 11 25 39 35
39 3 0 3 -6 -1 -12 -4 -7 -3 -9 1 -5 5 4 10 15 11 25 2 9 7 18 13 20 5 2 7 11
4 20 -6 14 -4 15 8 5 13 -11 15 -9 15 10 -1 15 4 22 17 21 10 -1 16 1 13 4 -3
3 0 12 7 20 10 13 9 14 -1 8 -11 -7 -11 -4 0 13 7 12 16 21 20 21 5 0 8 9 8
21 0 11 5 17 10 14 6 -3 10 1 10 10 0 9 4 14 9 11 5 -3 11 1 15 9 3 8 0 15 -7
15 -8 0 -7 4 3 9 8 6 19 7 25 3 5 -3 3 3 -5 13 -14 17 -13 18 2 12 12 -4 15
-2 11 9 -3 7 0 14 7 14 7 0 10 8 7 19 -5 21 17 36 36 25 8 -5 7 -2 0 7 -17 17
-16 32 0 26 8 -3 14 1 14 9 0 8 -4 14 -9 14 -4 0 -8 5 -8 12 0 6 3 9 6 5 3 -3
12 0 19 6 10 9 10 15 1 26 -8 12 -8 13 2 7 8 -5 12 0 12 13 0 12 7 21 16 21 8
0 12 5 9 11 -4 6 1 17 11 25 11 9 13 13 7 9 -7 -3 -13 -2 -13 3 0 6 6 12 14
15 7 3 14 18 14 33 0 15 8 33 18 41 10 7 13 13 5 13 -8 0 -7 5 4 16 9 10 14
25 12 35 -4 13 0 19 11 19 14 0 14 2 3 9 -10 6 -10 10 -1 16 6 4 9 13 6 21 -3
8 0 14 6 14 6 0 8 3 5 7 -4 3 1 12 11 20 16 12 16 13 -3 7 -19 -5 -19 -5 -2 9
9 8 17 25 17 38 0 51 3 59 17 47 11 -9 12 -7 4 13 -6 17 -5 30 4 42 7 9 11 28
10 42 -2 14 1 28 7 31 6 4 5 10 -3 15 -12 8 -11 11 1 22 10 8 14 26 13 55 -2
24 1 41 6 37 5 -3 8 3 7 12 -2 10 0 30 5 45 4 15 4 30 -1 33 -5 3 -6 16 -1 28
4 12 6 28 3 36 -3 10 0 11 9 5 12 -6 12 -5 1 8 -9 11 -10 18 -3 23 6 3 9 24 8
45 -2 22 1 42 7 44 7 3 7 5 1 5 -10 1 -12 107 -2 118 3 3 2 16 -3 29 -6 16 -6
24 1 24 6 0 7 5 3 11 -4 7 -8 60 -9 118 -1 58 -5 115 -9 126 -24 62 -32 93
-30 115 1 14 -3 31 -10 39 -8 12 -8 13 2 7 6 -4 12 -2 12 3 0 6 -4 11 -10 11
-5 0 -10 7 -10 15 0 8 -6 15 -12 15 -10 0 -9 3 1 9 11 7 11 13 0 32 -7 13 -12
25 -11 27 6 8 0 22 -7 17 -6 -3 -8 3 -6 12 1 10 -3 36 -10 58 -8 21 -12 42 -9
47 3 4 -3 8 -13 8 -10 0 -14 4 -8 8 13 9 19 35 6 28 -11 -7 -25 30 -16 44 3 5
2 10 -2 10 -10 0 -50 90 -45 102 1 5 -3 8 -9 8 -5 0 -7 5 -4 10 3 6 1 10 -4
10 -6 0 -11 9 -11 20 0 11 -4 20 -10 20 -5 0 -10 9 -10 20 0 11 -5 20 -11 20
-5 0 -8 4 -4 9 3 5 -2 17 -11 25 -8 9 -12 16 -7 16 4 0 0 7 -11 15 -10 7 -15
18 -11 24 3 6 -1 11 -9 11 -8 0 -13 6 -10 13 2 7 -5 23 -16 35 -11 12 -20 23
-19 24 2 2 -11 23 -27 47 -16 24 -33 51 -39 60 -5 9 -14 19 -20 23 -5 4 -6 8
-1 8 5 0 3 6 -3 13 -6 8 -8 17 -4 21 4 4 0 4 -10 0 -10 -3 -18 -1 -18 5 -4 32
-6 36 -17 33 -11 -2 -16 11 -13 31 0 4 -6 7 -14 7 -8 0 -15 4 -15 8 0 9 -35
55 -70 91 -14 14 -24 29 -22 33 2 7 -13 12 -30 9 -5 0 -8 4 -8 9 0 6 -20 31
-44 55 -24 25 -41 47 -38 50 3 3 -2 5 -12 5 -9 0 -15 4 -12 8 2 4 -9 14 -25
21 -17 7 -29 20 -29 32 0 12 -5 16 -15 13 -8 -4 -15 -1 -15 6 0 6 -5 8 -12 4
-6 -4 -8 -3 -5 3 4 6 -9 21 -27 34 -19 13 -32 27 -30 31 3 4 -2 5 -10 2 -9 -4
-18 1 -22 10 -3 9 -11 16 -18 16 -6 0 -25 12 -41 28 -17 15 -37 28 -45 30 -7
2 -22 13 -32 24 -10 12 -18 17 -18 12 0 -5 -7 0 -15 10 -8 11 -15 17 -15 13 0
-4 -18 4 -40 18 -22 14 -44 25 -50 25 -5 0 -10 6 -10 13 0 8 -4 7 -10 -3 -8
-13 -10 -12 -10 3 0 10 -4 15 -10 12 -5 -3 -10 -1 -10 4 0 6 -9 11 -20 11 -11
0 -20 5 -20 10 0 6 -9 10 -20 10 -11 0 -20 5 -20 11 0 5 -4 7 -10 4 -5 -3 -10
-1 -10 5 0 6 -4 9 -9 5 -5 -3 -12 -1 -16 5 -3 5 -15 10 -26 10 -13 0 -18 4
-13 12 5 8 0 9 -14 6 -12 -4 -22 -3 -22 2 0 4 -7 11 -16 14 -9 4 -13 2 -8 -5
3 -6 -6 -3 -21 7 -16 10 -33 19 -39 20 -6 2 -26 7 -43 13 -18 5 -33 7 -33 3 0
-4 -5 1 -11 11 -6 9 -14 15 -20 12 -5 -4 -15 -3 -21 2 -7 4 -20 8 -28 8 -8 0
-20 4 -26 8 -7 4 -28 8 -48 9 -20 2 -36 6 -36 10 0 4 -8 7 -17 7 -10 0 -25 1
-33 4 -24 6 -113 21 -135 21 -11 1 -26 5 -34 10 -11 7 -12 6 -6 -5 8 -12 6
-12 -8 0 -11 9 -46 14 -97 15 -44 0 -80 4 -80 7 0 3 -7 6 -15 6 -8 0 -12 -4
-9 -9 3 -4 0 -8 -5 -8 -6 0 -11 6 -11 13 0 9 -3 8 -9 -2 -7 -11 -9 -11 -14 0
-4 9 -8 10 -14 4 -11 -14 -33 -17 -33 -5 0 7 -6 7 -20 0 -14 -8 -20 -8 -20 0
0 7 -6 8 -19 0 -13 -7 -20 -7 -23 1 -2 6 -7 7 -11 3z"/>
<path d="M460 1446 c0 -2 8 -10 18 -17 15 -13 16 -12 3 4 -13 16 -21 21 -21
13z"/>
</g>
</svg>
